<svg width="16" height="17" viewBox="0 0 16 17" fill="none" xmlns="http://www.w3.org/2000/svg">
<g clip-path="url(#clip0_1829_3498)">
<path fill-rule="evenodd" clip-rule="evenodd" d="M8 0.5C12.418 0.5 16 4.08203 16 8.5C16 12.918 12.418 16.5 8 16.5C3.58203 16.5 0 12.918 0 8.5C0 4.08203 3.58203 0.5 8 0.5ZM9.20052 4.98307C9.70964 3.87891 10.8255 4.52604 10.431 5.2526L6.79427 11.9596C6.22005 13.2057 5.17969 12.3971 5.5625 11.6901L9.20052 4.98307ZM3.60807 6.59896C3.60807 6.29818 3.67448 6.00912 3.80599 5.73698C3.9388 5.46354 4.14063 5.25391 4.41276 5.10807C4.68359 4.96224 5.00391 4.88802 5.3763 4.88802C5.92188 4.88802 6.35287 5.04297 6.66667 5.35417C6.98047 5.66536 7.13802 6.08073 7.13802 6.59896C7.13802 7.1224 6.98177 7.53906 6.66667 7.85026C6.35287 8.16146 5.92188 8.31641 5.3763 8.31641C5.00391 8.31641 4.68359 8.24219 4.41276 8.09635C4.14193 7.94922 3.9388 7.74089 3.80599 7.46745C3.67318 7.19531 3.60807 6.90495 3.60807 6.59896ZM4.85677 6.60807C4.85677 6.97396 4.91667 7.23958 5.03516 7.40495C5.11328 7.51432 5.22656 7.56901 5.375 7.56901C5.52214 7.56901 5.63281 7.51302 5.70964 7.40495C5.82552 7.23958 5.88802 6.97526 5.88802 6.60807C5.88802 6.24609 5.82813 5.98047 5.70964 5.8138C5.63542 5.70833 5.52214 5.65365 5.375 5.65365C5.22656 5.65365 5.11198 5.70703 5.03516 5.8138C4.91667 5.97656 4.85677 6.24349 4.85677 6.60807ZM8.86328 10.582C8.86328 10.276 8.92839 9.98698 9.0599 9.71615C9.19011 9.44401 9.39323 9.23307 9.66537 9.08594C9.9375 8.9375 10.2578 8.86458 10.6276 8.86458C11.1758 8.86458 11.6081 9.02083 11.9232 9.33464C12.2383 9.64714 12.3945 10.0638 12.3945 10.5833C12.3945 11.1029 12.2383 11.5195 11.9232 11.832C11.6094 12.1445 11.1771 12.3021 10.6276 12.3021C10.2578 12.3021 9.9388 12.2279 9.66537 12.0807C9.39323 11.9336 9.19141 11.7214 9.0599 11.4505C8.92969 11.1758 8.86328 10.8867 8.86328 10.582ZM10.1133 10.5924C10.1133 10.9596 10.1732 11.2279 10.2917 11.3932C10.3659 11.4987 10.4792 11.5534 10.6276 11.5534C10.7747 11.5534 10.8893 11.5 10.9661 11.3932C11.0846 11.2279 11.1445 10.9596 11.1445 10.5924C11.1445 10.2266 11.0859 9.95573 10.9661 9.78906C10.8906 9.68229 10.7747 9.62891 10.6276 9.62891C10.4792 9.62891 10.3672 9.6849 10.2917 9.79297C10.1745 9.95964 10.1133 10.2266 10.1133 10.5924Z" fill="black"/>
</g>
<defs>
<clipPath id="clip0_1829_3498">
<rect width="16" height="16" fill="white" transform="translate(0 0.5)"/>
</clipPath>
</defs>
</svg>
